<svg xmlns="http://www.w3.org/2000/svg" width="760" height="360" viewBox="0 0 760 360">
  <style>
    .title { font: bold 18px 'DejaVu Sans', sans-serif; fill: #0b3d91; }
    .header { font: bold 14px 'DejaVu Sans', sans-serif; fill: #ffffff; }
    .cell { font: 13px 'DejaVu Sans', sans-serif; fill: #1f2937; }
    .table-border { fill: #f8fafc; stroke: #64748b; stroke-width: 1.2; }
    .header-bg { fill: #1d4ed8; }
    .status-done { fill: #dcfce7; }
    .status-ip { fill: #fef3c7; }
  </style>
  <text class="title" x="20" y="32">Hands-on Chapter 02 / 03 Progress Snapshot (2025-11-14)</text>
  <g transform="translate(20,60)">
    <rect class="header-bg" width="720" height="36" rx="6" ry="6" />
    <text class="header" x="24" y="84">Task</text>
    <text class="header" x="340" y="84">Artifact</text>
    <text class="header" x="560" y="84">Status</text>
  </g>
  <g transform="translate(20,96)">
    <rect class="table-border" width="720" height="90" rx="8" ry="8" />
    <text class="cell" x="24" y="30">Update practice/coupled/ch02_softness.c logging</text>
    <text class="cell" x="24" y="58">Sync presets YAML ←→ cheatsheet</text>
    <text class="cell" x="24" y="86">Add Hands-on link to README</text>
    <text class="cell" x="340" y="30">data/diagnostics/bench_coupled_constraint_multi.csv</text>
    <text class="cell" x="340" y="58">data/coupled_constraint_presets.yaml</text>
    <text class="cell" x="340" y="86">README.md §Educational Materials</text>
    <rect class="status-done" x="520" y="12" width="180" height="24" rx="6" ry="6" />
    <rect class="status-done" x="520" y="40" width="180" height="24" rx="6" ry="6" />
    <rect class="status-ip" x="520" y="68" width="180" height="24" rx="6" ry="6" />
    <text class="cell" x="560" y="30">Done</text>
    <text class="cell" x="560" y="58">Done</text>
    <text class="cell" x="560" y="86">In Progress</text>
  </g>
  <g transform="translate(20,210)">
    <text class="cell" x="0" y="0">Figure: Generated from `python tools/update_multi_omega_assets.py --refresh-report` output and documentation audit.</text>
    <text class="cell" x="0" y="26">Use this snapshot when onboarding reviewers to highlight which artifacts must be cross-checked.</text>
  </g>
</svg>
